<?xml version="1.0" encoding="UTF-8"?>
<svg xmlns="http://www.w3.org/2000/svg" version="1.1" xmlns:xlink="http://www.w3.org/1999/xlink" viewBox="0 0 1920 1920">
  <!-- Generator: Adobe Illustrator 29.0.0, SVG Export Plug-In . SVG Version: 2.1.0 Build 186)  -->
  <defs>
    <style>
      .st0 {
        fill: url(#linear-gradient6);
      }

      .st0, .st1 {
        mix-blend-mode: multiply;
      }

      .st2 {
        fill: #4a4a4a;
      }

      .st3 {
        fill: url(#radial-gradient3);
      }

      .st3, .st4, .st5, .st6 {
        mix-blend-mode: color-burn;
      }

      .st4 {
        fill: url(#radial-gradient1);
      }

      .st7, .st8, .st9 {
        mix-blend-mode: color-dodge;
      }

      .st10 {
        fill: url(#linear-gradient1);
      }

      .st11 {
        fill: url(#linear-gradient9);
      }

      .st12 {
        fill: url(#linear-gradient2);
        mix-blend-mode: screen;
      }

      .st13 {
        isolation: isolate;
      }

      .st14 {
        fill-rule: evenodd;
      }

      .st14, .st15, .st9 {
        fill: #a3a3a3;
      }

      .st16 {
        fill: url(#linear-gradient7);
      }

      .st17 {
        fill: url(#linear-gradient4);
      }

      .st1 {
        fill: url(#linear-gradient8);
      }

      .st18 {
        mix-blend-mode: color;
      }

      .st5 {
        fill: url(#radial-gradient2);
      }

      .st19 {
        fill: url(#linear-gradient5);
      }

      .st20 {
        fill: url(#linear-gradient3);
      }

      .st21, .st8, .st9 {
        display: none;
      }

      .st22 {
        fill: #6b6b6b;
      }

      .st23 {
        fill: url(#linear-gradient);
      }

      .st6 {
        fill: url(#radial-gradient);
      }
    </style>
    <linearGradient id="linear-gradient" x1="41.49" y1="41.49" x2="1968.11" y2="1968.11" gradientUnits="userSpaceOnUse">
      <stop offset="0" stop-color="#868686"/>
      <stop offset=".16" stop-color="#151515"/>
      <stop offset=".19" stop-color="#000"/>
      <stop offset=".26" stop-color="#101010"/>
      <stop offset=".32" stop-color="#191919"/>
      <stop offset=".41" stop-color="#424242"/>
      <stop offset=".49" stop-color="#5e5e5e"/>
      <stop offset=".54" stop-color="#696969"/>
      <stop offset=".57" stop-color="#616161"/>
      <stop offset=".63" stop-color="#4e4e4e"/>
      <stop offset=".69" stop-color="#2e2e2e"/>
      <stop offset=".73" stop-color="#191919"/>
      <stop offset=".81" stop-color="#030303"/>
      <stop offset=".82" stop-color="#000"/>
      <stop offset=".85" stop-color="#080808"/>
      <stop offset=".88" stop-color="#1e1e1e"/>
      <stop offset=".92" stop-color="#3e3e3e"/>
      <stop offset="1" stop-color="#8b8b8b"/>
    </linearGradient>
    <linearGradient id="linear-gradient1" x1="320.65" y1="1599.35" x2="1612.61" y2="307.39" gradientUnits="userSpaceOnUse">
      <stop offset="0" stop-color="#fff"/>
      <stop offset=".03" stop-color="#ebebeb"/>
      <stop offset=".04" stop-color="#ddd"/>
      <stop offset=".08" stop-color="#a5a5a5"/>
      <stop offset=".11" stop-color="#828282"/>
      <stop offset=".13" stop-color="#757575"/>
      <stop offset=".16" stop-color="#858585"/>
      <stop offset=".24" stop-color="#afafaf"/>
      <stop offset=".32" stop-color="#ebebeb"/>
      <stop offset=".36" stop-color="#f1f1f1"/>
      <stop offset=".44" stop-color="#fff"/>
      <stop offset=".69" stop-color="#ebebeb"/>
      <stop offset=".69" stop-color="#e6e6e6"/>
      <stop offset=".74" stop-color="#b6b6b6"/>
      <stop offset=".79" stop-color="#939393"/>
      <stop offset=".82" stop-color="#7e7e7e"/>
      <stop offset=".85" stop-color="#777"/>
      <stop offset=".87" stop-color="#7a7a7a"/>
      <stop offset=".89" stop-color="#858585"/>
      <stop offset=".91" stop-color="#989898"/>
      <stop offset=".93" stop-color="#b3b3b3"/>
      <stop offset=".95" stop-color="#d4d4d4"/>
      <stop offset=".96" stop-color="#ebebeb"/>
      <stop offset=".97" stop-color="#f1f1f1"/>
      <stop offset="1" stop-color="#fff"/>
    </linearGradient>
    <radialGradient id="radial-gradient" cx="960" cy="960" fx="960" fy="960" r="897.73" gradientUnits="userSpaceOnUse">
      <stop offset=".29" stop-color="#fff"/>
      <stop offset=".46" stop-color="#fcfcfc"/>
      <stop offset=".57" stop-color="#f3f3f3"/>
      <stop offset=".67" stop-color="#e4e4e4"/>
      <stop offset=".75" stop-color="#cecece"/>
      <stop offset=".83" stop-color="#b2b2b2"/>
      <stop offset=".91" stop-color="#919191"/>
      <stop offset=".95" stop-color="#7d7d7d"/>
    </radialGradient>
    <linearGradient id="linear-gradient2" x1="960" y1="282.52" x2="960" y2="1773.37" gradientUnits="userSpaceOnUse">
      <stop offset="0" stop-color="#c7c7c7"/>
      <stop offset=".13" stop-color="#999"/>
      <stop offset=".28" stop-color="#6b6b6b"/>
      <stop offset=".43" stop-color="#444"/>
      <stop offset=".58" stop-color="#262626"/>
      <stop offset=".73" stop-color="#111"/>
      <stop offset=".87" stop-color="#040404"/>
      <stop offset="1" stop-color="#000"/>
    </linearGradient>
    <linearGradient id="linear-gradient3" x1="11" y1="959.5" x2="1910" y2="959.5" gradientUnits="userSpaceOnUse">
      <stop offset="0" stop-color="#0072d4"/>
      <stop offset=".41" stop-color="#f4f4f4"/>
      <stop offset=".58" stop-color="#eee6e7"/>
      <stop offset="1" stop-color="#7f0011"/>
    </linearGradient>
    <linearGradient id="linear-gradient4" x1="1599.35" y1="1599.35" x2="307.39" y2="307.39" xlink:href="#linear-gradient1"/>
    <linearGradient id="linear-gradient5" x1="770.84" y1="960" x2="1218.95" y2="960" gradientUnits="userSpaceOnUse">
      <stop offset="0" stop-color="#fff"/>
      <stop offset="1" stop-color="#a5a5a5"/>
    </linearGradient>
    <linearGradient id="linear-gradient6" x1="960" y1="306.23" x2="960" y2="-1184.62" gradientTransform="translate(1920 1258.64) rotate(-180)" gradientUnits="userSpaceOnUse">
      <stop offset="0" stop-color="#e3e3e3"/>
      <stop offset="0" stop-color="#dfdfdf"/>
      <stop offset=".16" stop-color="#a8a8a8"/>
      <stop offset=".3" stop-color="#797979"/>
      <stop offset=".45" stop-color="#525252"/>
      <stop offset=".59" stop-color="#343434"/>
      <stop offset=".74" stop-color="#1f1f1f"/>
      <stop offset=".87" stop-color="#121212"/>
      <stop offset="1" stop-color="#0e0e0e"/>
    </linearGradient>
    <linearGradient id="linear-gradient7" x1="1599.06" x2="307.11" y2="307.39" xlink:href="#linear-gradient1"/>
    <radialGradient id="radial-gradient1" cx="959.72" cy="960" fx="959.72" fy="960" r="897.73" xlink:href="#radial-gradient"/>
    <linearGradient id="linear-gradient8" x1="960.29" x2="960.29" xlink:href="#linear-gradient6"/>
    <radialGradient id="radial-gradient2" cx="960" cy="960" fx="960" fy="960" r="603.7" xlink:href="#radial-gradient"/>
    <linearGradient id="linear-gradient9" x1="1599.06" x2="307.11" y2="307.39" xlink:href="#linear-gradient1"/>
    <radialGradient id="radial-gradient3" cx="959.72" cy="960" fx="959.72" fy="960" r="603.7" xlink:href="#radial-gradient"/>
  </defs>
  <g class="st13">
    <g id="Layer_1">
      <g>
        <path class="st23" d="M960,1916.5h0c-264.08,0-503.44-107.24-676.35-280.15C110.74,1463.44,3.5,1224.09,3.5,960S110.74,456.56,283.65,283.65C456.56,110.74,695.92,3.5,960,3.5h0c264.08,0,503.44,107.24,676.35,280.15,172.91,172.91,280.15,412.27,280.15,676.35s-107.24,503.44-280.15,676.35c-172.91,172.91-412.27,280.15-676.35,280.15Z"/>
        <path class="st10" d="M960,1744.94h0c-216.72,0-413.14-88.01-555.04-229.9-141.89-141.9-229.9-338.32-229.9-555.04s88.01-413.14,229.9-555.04c141.9-141.9,338.32-229.9,555.04-229.9h0c216.72,0,413.14,88.01,555.04,229.9,141.89,141.9,229.9,338.32,229.9,555.04s-88.01,413.14-229.9,555.04c-141.9,141.9-338.32,229.9-555.04,229.9Z"/>
        <path class="st2" d="M960,1666.35h0c-390.11,0-706.35-316.24-706.35-706.35h0c0-390.11,316.24-706.35,706.35-706.35h0c390.11,0,706.35,316.24,706.35,706.35h0c0,390.11-316.24,706.35-706.35,706.35Z"/>
        <path class="st6" d="M960,1666.35h0c-390.11,0-706.35-316.24-706.35-706.35h0c0-390.11,316.24-706.35,706.35-706.35h0c390.11,0,706.35,316.24,706.35,706.35h0c0,390.11-316.24,706.35-706.35,706.35Z"/>
        <path class="st12" d="M1625.66,964.53c.01-1.53.23-3,.23-4.53,0-183.89-74.49-350.31-195.04-470.85-120.54-120.55-286.96-195.03-470.85-195.03h0c-183.89,0-350.31,74.49-470.85,195.03-120.54,120.55-195.03,286.96-195.03,470.85,0,1.53.22,3,.23,4.53h1331.32Z"/>
        <g class="st8">
          <polygon class="st15" points="1218.95 960 770.84 684.13 770.84 1235.87 1218.95 960"/>
        </g>
        <g class="st8">
          <g>
            <rect class="st15" x="780.91" y="727.71" width="118.92" height="464.59"/>
            <rect class="st15" x="1020.14" y="727.65" width="118.95" height="464.69"/>
          </g>
        </g>
        <g class="st8">
          <g>
            <polygon class="st15" points="815.19 960 1191.13 1191.44 1191.13 728.56 815.19 960"/>
            <rect class="st15" x="728.86" y="728.56" width="118.49" height="462.88" transform="translate(1576.21 1920) rotate(180)"/>
          </g>
        </g>
        <g class="st8">
          <g>
            <polygon class="st15" points="1104.73 960 728.99 728.68 728.99 1191.32 1104.73 960"/>
            <rect class="st15" x="1072.59" y="728.68" width="118.42" height="462.64"/>
          </g>
        </g>
        <g class="st8">
          <path class="st14" d="M1190.03,603.42l-326.88,203.15-188.02-60.61s-91.28,130.36-91.28,216.27c0,81.28,91.28,211.95,91.28,211.95l188.02-60.29,326.88,202.68s106.97-176.3,106.97-353.58-106.97-359.57-106.97-359.57ZM1181.11,1191.92c-34.46,0-52.82-99.78-52.82-222.86s18.36-222.86,52.82-222.86,81.56,99.78,81.56,222.86-47.1,222.86-81.56,222.86Z"/>
        </g>
        <g class="st7">
          <path class="st14" d="M815.18,661.37c18.99-42.82,48.31-79.83,86.88-103.2,11.36-6.88,24.58-9.87,36.96-16.32h-1.92c-12.16,4-24.32,8-36.48,12-49.24,21.83-84.43,67.17-106.08,116.64-92.02,210.24,14.68,505.47,137.76,608.16,35.79,29.86,91.1,79.79,153.6,80.64v-.48c-50.6-9.02-100.74-50.82-131.52-81.6-117.38-117.38-237.94-393.18-139.2-615.84ZM846.86,1204.73c-56.53-78.67-93.96-162.91-110.4-283.68-3.84-28.18-2.85-63.56,1.44-90.24,1.92-11.04,3.84-22.08,5.76-33.12-12.31,6.45-23.31,11.43-31.68,21.6-34.82,42.32-45.41,134.83-32.16,210.72,16.6,95.05,69.99,207.07,158.4,228,15.83,3.75,33.48,1,48.96-.48.32-.32.64-.64.96-.96-16.25-13.31-28.92-34.64-41.28-51.84ZM1294.22,1000.73c-23.5-144.39-86.3-298.4-176.64-374.4-37-31.13-73.53-66.49-140.64-67.2-6.24.64-12.48,1.28-18.72,1.92-15.22,3.06-29.32,8.69-40.8,15.84-84.34,52.5-122.76,211.76-97.92,353.28,24.01,136.76,79.93,263.68,167.04,336.96,40.46,34.03,110.17,94.73,191.52,71.52,107.05-30.55,139.17-196.54,116.16-337.92ZM1152.62,1234.49c-23.74,30.49-68.13,38.72-107.04,16.32-52.8-30.41-85.68-79.61-116.16-132.48-6.56-13.28-13.12-26.56-19.68-39.84,73.12,76.94,132.48-19.88,106.56-109.44-12.21-42.21-68.53-137.25-127.68-90.24-15.48,12.3-18.18,29.76-25.92,50.4-23.41-81.57-9.07-212.36,39.84-251.04,12.58-9.95,24.23-10.92,42.72-16.32,50.71-.17,85.91,34.04,109.44,62.4,65.88,79.42,108.8,175.47,129.6,300.96,12.59,75.96,2.66,165.17-31.68,209.28ZM661.58,1034.33c-6.35-29.44-11.89-72.54-6.24-108,4.32-27.11,7.18-52.02,15.84-74.4,5.76-12.8,11.52-25.6,17.28-38.4-18.42,8.29-31.83,14.33-45.6,26.4-71.24,62.46-41.47,222.96-6.72,300.96,14.95,33.56,36.15,61.77,58.08,88.32,23.47,28.42,86.45,86.99,140.16,48-106.95-33.46-147.84-127.25-172.8-242.88Z"/>
        </g>
        <path class="st9" d="M1308.87,1081.4c13.29-38.04,20.54-78.9,20.54-121.41s-7.25-83.35-20.54-121.39c-.31-1.14-.71-2.26-1.17-3.32-51.24-142.27-187.56-244.28-347.28-244.28s-296.04,102-347.28,244.28c-.47,1.07-.86,2.19-1.17,3.32-13.29,38.04-20.54,78.88-20.54,121.39s7.25,83.37,20.54,121.41c.33,1.14.71,2.26,1.17,3.32,51.26,142.27,187.56,244.28,347.28,244.28s296.04-102,347.28-244.28c.47-1.07.86-2.19,1.17-3.32h0ZM960.42,1276.1c-14.05,0-36.71-25.43-55.65-82.25-9.14-27.41-16.45-58.94-21.78-93.22h154.86c-5.32,34.29-12.64,65.79-21.78,93.22-18.94,56.82-41.6,82.25-55.65,82.25h0ZM876.57,1047.74c-2.55-28.2-3.89-57.63-3.89-87.74s1.34-59.52,3.89-87.73h167.7c2.53,28.2,3.87,57.61,3.87,87.73s-1.34,59.54-3.87,87.74h-167.7ZM644.33,959.99c0-30.42,4.32-59.87,12.39-87.73h166.8c-2.48,28.79-3.73,58.28-3.73,87.73s1.26,58.96,3.73,87.74h-166.8c-8.07-27.88-12.39-57.3-12.39-87.74h0ZM960.42,643.9c14.05,0,36.71,25.43,55.65,82.25,9.14,27.41,16.46,58.94,21.78,93.22h-154.86c5.32-34.3,12.64-65.81,21.78-93.22,18.94-56.82,41.6-82.25,55.65-82.25h0ZM1097.33,872.26h166.79c8.06,27.86,12.4,57.3,12.4,87.73s-4.34,59.89-12.4,87.74h-166.79c2.48-28.79,3.72-58.28,3.72-87.74s-1.24-58.94-3.72-87.73h0ZM1243.46,819.37h-152.19c-9.42-64.88-25.55-123.08-48.2-164.49,87.78,23.8,160.51,84.56,200.39,164.49h0ZM877.77,654.88c-22.64,41.41-38.78,99.61-48.2,164.49h-152.19c39.88-79.93,112.61-140.69,200.39-164.49h0ZM677.39,1100.63h152.19c9.42,64.88,25.55,123.08,48.2,164.49-87.78-23.82-160.51-84.56-200.39-164.49h0ZM1043.07,1265.12c22.64-41.41,38.78-99.61,48.2-164.49h152.19c-39.88,79.93-112.61,140.67-200.39,164.49h0ZM1043.07,1265.12"/>
      </g>
      <g class="st18">
        <circle class="st20" cx="960.5" cy="959.5" r="949.5"/>
      </g>
    </g>
    <g id="Layer_2" class="st21">
      <g>
        <path class="st23" d="M960,1916.5h0c-264.08,0-503.44-107.24-676.35-280.15C110.74,1463.44,3.5,1224.09,3.5,960S110.74,456.56,283.65,283.65C456.56,110.74,695.92,3.5,960,3.5h0c264.08,0,503.44,107.24,676.35,280.15,172.91,172.91,280.15,412.27,280.15,676.35s-107.24,503.44-280.15,676.35c-172.91,172.91-412.27,280.15-676.35,280.15Z"/>
        <path class="st17" d="M960,1744.94h0c-216.72,0-413.14-88.01-555.04-229.9-141.89-141.9-229.9-338.32-229.9-555.04s88.01-413.14,229.9-555.04c141.9-141.9,338.32-229.9,555.04-229.9h0c216.72,0,413.14,88.01,555.04,229.9,141.89,141.9,229.9,338.32,229.9,555.04s-88.01,413.14-229.9,555.04c-141.9,141.9-338.32,229.9-555.04,229.9Z"/>
        <path class="st22" d="M960,1666.35h0c-390.11,0-706.35-316.24-706.35-706.35h0c0-390.11,316.24-706.35,706.35-706.35h0c390.11,0,706.35,316.24,706.35,706.35h0c0,390.11-316.24,706.35-706.35,706.35Z"/>
        <path class="st6" d="M960,1666.35h0c-390.11,0-706.35-316.24-706.35-706.35h0c0-390.11,316.24-706.35,706.35-706.35h0c390.11,0,706.35,316.24,706.35,706.35h0c0,390.11-316.24,706.35-706.35,706.35Z"/>
        <g class="st21">
          <polygon class="st19" points="1218.95 960 770.84 684.13 770.84 1235.87 1218.95 960"/>
        </g>
        <g class="st8">
          <g>
            <rect class="st15" x="780.91" y="727.71" width="118.92" height="464.59"/>
            <rect class="st15" x="1020.14" y="727.65" width="118.95" height="464.69"/>
          </g>
        </g>
        <g class="st8">
          <g>
            <polygon class="st15" points="815.19 960 1191.13 1191.44 1191.13 728.56 815.19 960"/>
            <rect class="st15" x="728.86" y="728.56" width="118.49" height="462.88" transform="translate(1576.21 1920) rotate(180)"/>
          </g>
        </g>
        <g class="st8">
          <g>
            <polygon class="st15" points="1104.73 960 728.99 728.68 728.99 1191.32 1104.73 960"/>
            <rect class="st15" x="1072.59" y="728.68" width="118.42" height="462.64"/>
          </g>
        </g>
        <g class="st8">
          <path class="st14" d="M1190.03,603.42l-326.88,203.15-188.02-60.61s-91.28,130.36-91.28,216.27c0,81.28,91.28,211.95,91.28,211.95l188.02-60.29,326.88,202.68s106.97-176.3,106.97-353.58-106.97-359.57-106.97-359.57ZM1181.11,1191.92c-34.46,0-52.82-99.78-52.82-222.86s18.36-222.86,52.82-222.86,81.56,99.78,81.56,222.86-47.1,222.86-81.56,222.86Z"/>
        </g>
        <g class="st7">
          <path class="st14" d="M830.58,1244.77c-65.42-91.05-108.74-188.55-127.78-328.33-4.44-32.62-3.29-73.57,1.67-104.44,2.22-12.78,4.44-25.56,6.67-38.33-14.25,7.47-26.98,13.23-36.67,25-40.3,48.98-52.56,156.05-37.22,243.89,19.21,110.01,81,239.66,183.33,263.89,18.32,4.34,38.75,1.15,56.67-.56.37-.37.74-.74,1.11-1.11-18.81-15.4-33.48-40.1-47.78-60ZM1348.35,1008.66c-27.2-167.12-99.88-345.36-204.44-433.33-42.83-36.03-85.11-76.96-162.78-77.78-7.22.74-14.45,1.48-21.67,2.22-17.62,3.55-33.93,10.06-47.22,18.33-97.62,60.77-142.09,245.09-113.33,408.88,27.79,158.28,92.51,305.19,193.33,390,46.83,39.39,127.51,109.64,221.66,82.78,123.9-35.36,161.07-227.48,134.44-391.11ZM1184.46,1279.21c-27.48,35.29-78.86,44.82-123.89,18.89-61.12-35.19-99.16-92.14-134.44-153.33-7.59-15.37-15.19-30.74-22.78-46.11,84.63,89.06,153.33-23.01,123.33-126.67-14.14-48.86-79.31-158.86-147.78-104.44-17.91,14.24-21.04,34.44-30,58.33-27.09-94.4-10.5-245.78,46.11-290.55,14.56-11.52,28.04-12.64,49.44-18.89,58.69-.19,99.43,39.39,126.67,72.22,76.25,91.92,125.93,203.09,150,348.33,14.57,87.92,3.08,191.16-36.67,242.22ZM793.91,615.89c21.98-49.56,55.91-92.4,100.55-119.44,13.15-7.97,28.45-11.42,42.78-18.89h-2.22c-14.07,4.63-28.15,9.26-42.22,13.89-56.99,25.27-97.71,77.74-122.78,135-106.5,243.33,16.99,585.03,159.44,703.88,41.43,34.56,105.43,92.34,177.78,93.33v-.56c-58.56-10.44-116.59-58.82-152.22-94.44-135.86-135.85-275.39-455.07-161.11-712.77ZM616.14,1047.55c-7.35-34.07-13.76-83.96-7.22-125,5-31.38,8.31-60.21,18.33-86.11,6.67-14.81,13.33-29.63,20-44.44-21.32,9.59-36.84,16.58-52.78,30.56-82.45,72.3-48,258.05-7.78,348.33,17.31,38.85,41.84,71.49,67.22,102.22,27.17,32.89,100.05,100.69,162.22,55.55-123.79-38.72-171.11-147.28-200-281.11Z"/>
        </g>
        <path class="st9" d="M1308.87,1081.4c13.29-38.04,20.54-78.9,20.54-121.41s-7.25-83.35-20.54-121.39c-.31-1.14-.71-2.26-1.17-3.32-51.24-142.27-187.56-244.28-347.28-244.28s-296.04,102-347.28,244.28c-.47,1.07-.86,2.19-1.17,3.32-13.29,38.04-20.54,78.88-20.54,121.39s7.25,83.37,20.54,121.41c.33,1.14.71,2.26,1.17,3.32,51.26,142.27,187.56,244.28,347.28,244.28s296.04-102,347.28-244.28c.47-1.07.86-2.19,1.17-3.32h0ZM960.42,1276.1c-14.05,0-36.71-25.43-55.65-82.25-9.14-27.41-16.45-58.94-21.78-93.22h154.86c-5.32,34.29-12.64,65.79-21.78,93.22-18.94,56.82-41.6,82.25-55.65,82.25h0ZM876.57,1047.74c-2.55-28.2-3.89-57.63-3.89-87.74s1.34-59.52,3.89-87.73h167.7c2.53,28.2,3.87,57.61,3.87,87.73s-1.34,59.54-3.87,87.74h-167.7ZM644.33,959.99c0-30.42,4.32-59.87,12.39-87.73h166.8c-2.48,28.79-3.73,58.28-3.73,87.73s1.26,58.96,3.73,87.74h-166.8c-8.07-27.88-12.39-57.3-12.39-87.74h0ZM960.42,643.9c14.05,0,36.71,25.43,55.65,82.25,9.14,27.41,16.46,58.94,21.78,93.22h-154.86c5.32-34.3,12.64-65.81,21.78-93.22,18.94-56.82,41.6-82.25,55.65-82.25h0ZM1097.33,872.26h166.79c8.06,27.86,12.4,57.3,12.4,87.73s-4.34,59.89-12.4,87.74h-166.79c2.48-28.79,3.72-58.28,3.72-87.74s-1.24-58.94-3.72-87.73h0ZM1243.46,819.37h-152.19c-9.42-64.88-25.55-123.08-48.2-164.49,87.78,23.8,160.51,84.56,200.39,164.49h0ZM877.77,654.88c-22.64,41.41-38.78,99.61-48.2,164.49h-152.19c39.88-79.93,112.61-140.69,200.39-164.49h0ZM677.39,1100.63h152.19c9.42,64.88,25.55,123.08,48.2,164.49-87.78-23.82-160.51-84.56-200.39-164.49h0ZM1043.07,1265.12c22.64-41.41,38.78-99.61,48.2-164.49h152.19c-39.88,79.93-112.61,140.67-200.39,164.49h0ZM1043.07,1265.12"/>
        <path class="st0" d="M294.34,964c-.01,1.53-.23,3-.23,4.53,0,183.89,74.49,350.31,195.04,470.85,120.54,120.55,286.96,195.03,470.85,195.03h0c183.89,0,350.31-74.49,470.85-195.03,120.54-120.55,195.03-286.96,195.03-470.85,0-1.53-.22-3-.23-4.53H294.34Z"/>
      </g>
      <g class="st18">
        <circle class="st20" cx="960.5" cy="959.5" r="949.5"/>
      </g>
    </g>
    <g id="Layer_3" class="st21">
      <path class="st16" d="M959.72,1744.94h0c-216.72,0-413.14-88.01-555.04-229.9-141.89-141.9-229.9-338.32-229.9-555.04s88.01-413.14,229.9-555.04c141.9-141.9,338.32-229.9,555.04-229.9h0c216.72,0,413.14,88.01,555.04,229.9,141.89,141.9,229.9,338.32,229.9,555.04s-88.01,413.14-229.9,555.04c-141.9,141.9-338.32,229.9-555.04,229.9Z"/>
      <path class="st22" d="M959.72,1666.35h0c-390.11,0-706.35-316.24-706.35-706.35h0c0-390.11,316.24-706.35,706.35-706.35h0c390.11,0,706.35,316.24,706.35,706.35h0c0,390.11-316.24,706.35-706.35,706.35Z"/>
      <path class="st4" d="M959.72,1666.35h0c-390.11,0-706.35-316.24-706.35-706.35h0c0-390.11,316.24-706.35,706.35-706.35h0c390.11,0,706.35,316.24,706.35,706.35h0c0,390.11-316.24,706.35-706.35,706.35Z"/>
      <g class="st7">
        <path class="st14" d="M1189.74,603.42l-326.88,203.15-188.02-60.61s-91.28,130.36-91.28,216.27c0,81.28,91.28,211.95,91.28,211.95l188.02-60.29,326.88,202.68s106.97-176.3,106.97-353.58-106.97-359.57-106.97-359.57ZM1180.83,1191.92c-34.46,0-52.82-99.78-52.82-222.86s18.36-222.86,52.82-222.86,81.56,99.78,81.56,222.86-47.1,222.86-81.56,222.86Z"/>
      </g>
      <path class="st1" d="M294.06,964c-.01,1.53-.23,3-.23,4.53,0,183.89,74.49,350.31,195.04,470.85,120.54,120.55,286.96,195.03,470.85,195.03h0c183.89,0,350.31-74.49,470.85-195.03,120.54-120.55,195.03-286.96,195.03-470.85,0-1.53-.22-3-.23-4.53H294.06Z"/>
    </g>
    <g id="Layer_1_copy" class="st21">
      <g>
        <path class="st10" d="M960,1744.94h0c-216.72,0-413.14-88.01-555.04-229.9-141.89-141.9-229.9-338.32-229.9-555.04s88.01-413.14,229.9-555.04c141.9-141.9,338.32-229.9,555.04-229.9h0c216.72,0,413.14,88.01,555.04,229.9,141.89,141.9,229.9,338.32,229.9,555.04s-88.01,413.14-229.9,555.04c-141.9,141.9-338.32,229.9-555.04,229.9Z"/>
        <path class="st2" d="M960,1435h0c-262.34,0-475-212.66-475-475h0c0-262.34,212.66-475,475-475h0c262.34,0,475,212.66,475,475h0c0,262.34-212.66,475-475,475Z"/>
        <path class="st5" d="M960,1435h0c-262.34,0-475-212.66-475-475h0c0-262.34,212.66-475,475-475h0c262.34,0,475,212.66,475,475h0c0,262.34-212.66,475-475,475Z"/>
      </g>
    </g>
    <g id="Layer_3_copy" class="st21">
      <path class="st11" d="M959.72,1744.94h0c-216.72,0-413.14-88.01-555.04-229.9-141.89-141.9-229.9-338.32-229.9-555.04s88.01-413.14,229.9-555.04c141.9-141.9,338.32-229.9,555.04-229.9h0c216.72,0,413.14,88.01,555.04,229.9,141.89,141.9,229.9,338.32,229.9,555.04s-88.01,413.14-229.9,555.04c-141.9,141.9-338.32,229.9-555.04,229.9Z"/>
      <path class="st22" d="M959.72,1435h0c-262.34,0-475-212.66-475-475h0c0-262.34,212.66-475,475-475h0c262.34,0,475,212.66,475,475h0c0,262.34-212.66,475-475,475Z"/>
      <path class="st3" d="M959.72,1435h0c-262.34,0-475-212.66-475-475h0c0-262.34,212.66-475,475-475h0c262.34,0,475,212.66,475,475h0c0,262.34-212.66,475-475,475Z"/>
    </g>
  </g>
</svg>